<svg id="header-logo" width="224" height="46" viewBox="0 0 224 46" fill="none" xmlns="http://www.w3.org/2000/svg">
    <path d="M10.0926 40.4311C11.1858 40.4569 12.2757 40.3005 13.3175 39.9683V36.9823H8.27117V33.2051H16.9156V42.5213C14.7441 43.5687 12.3533 44.0806 9.94332 44.0143C4.31474 44.0293 0 40.2818 0 33.8769C0 28.6514 3.28458 23.7246 9.22668 23.7246C10.8242 23.6782 12.4069 24.0423 13.8236 24.782C15.2403 25.5217 16.4437 26.6124 17.3187 27.9497L14.5567 30.5326C12.9592 28.2185 11.4214 27.3675 9.2864 27.3675C5.83759 27.3675 3.82206 30.6073 3.82206 33.8918C3.77265 34.7408 3.89894 35.5908 4.19304 36.3887C4.48714 37.1866 4.94272 37.9152 5.53127 38.529C6.11983 39.1427 6.8287 39.6285 7.61356 39.9558C8.39841 40.2831 9.24236 40.4449 10.0926 40.4311V40.4311Z" fill="white"/>
    <path d="M34.2193 43.656L29.4119 36.5494H26.4259V43.656H22.7681V24.0978H30.5764C34.5776 24.0978 37.474 26.2776 37.474 30.0698C37.4979 31.3594 37.1036 32.6222 36.35 33.6691C35.5965 34.716 34.5242 35.4908 33.2937 35.8775L38.6983 43.656H34.2193ZM30.5167 27.8452H26.3662V32.7721H30.3375C32.5173 32.7721 33.652 31.9062 33.652 30.0996C33.652 28.5619 32.5472 27.8452 30.5167 27.8452Z" fill="white"/>
    <path d="M40.9531 33.847C40.9531 28.4723 44.7005 23.7245 50.4187 23.7245C56.1368 23.7245 59.8395 28.532 59.8395 33.9067C59.8395 39.2815 56.0921 44.0292 50.4187 44.0292C44.7453 44.0292 40.9531 39.2069 40.9531 33.847ZM56.0025 33.847C56.0025 30.3684 54.0019 27.2629 50.4187 27.2629C46.8355 27.2629 44.7901 30.3534 44.7901 33.847C44.7901 37.3406 46.8206 40.4311 50.4187 40.4311C54.0168 40.4311 56.0025 37.3854 56.0025 33.9067V33.847Z" fill="white"/>
    <path d="M63.8999 36.4598V24.0978H67.498V36.4896C67.498 39.177 69.6628 40.4311 72.4547 40.4311C75.2466 40.4311 77.4413 39.177 77.4413 36.4896V24.0978H81.0394V36.4598C81.0394 41.4165 77.4712 44.0292 72.4547 44.0292C67.4383 44.0292 63.8999 41.3866 63.8999 36.4598Z" fill="white"/>
    <path d="M98.9707 43.656L90.0127 29.8458V43.656H86.4893V24.0978H91.1922L100.15 38.0722V24.0978H103.733V43.656H98.9707Z" fill="white"/>
    <path d="M116.364 43.656H109.123V24.0978H116.364C123.246 24.0978 126.456 28.5768 126.456 33.847C126.456 39.1173 123.067 43.656 116.364 43.656ZM116.229 27.8751H112.721V39.819H116.229C120.514 39.819 122.634 37.2063 122.634 33.847C122.634 30.4878 120.23 27.8751 116.229 27.8751Z" fill="white"/>
    <path d="M187.34 36.4598V24.0978H190.938V36.4896C190.938 39.177 193.118 40.4311 195.895 40.4311C198.672 40.4311 200.897 39.177 200.897 36.4896V24.0978H204.54V36.4598C204.54 41.4165 200.971 44.0292 195.955 44.0292C190.938 44.0292 187.34 41.3866 187.34 36.4598Z" fill="white"/>
    <path d="M216.559 37.3257H212.96V43.656H209.362V24.0978H216.559C221.038 24.0978 223.949 26.8598 223.949 30.652C223.949 34.4442 221.217 37.3257 216.559 37.3257ZM216.559 27.8751H213.02V33.5484H216.484C219.037 33.5484 220.186 32.4287 220.186 30.7118C220.186 28.9948 218.873 27.8751 216.484 27.8751H216.559Z" fill="white"/>
    <path d="M176.352 18.7679H174.322C174.62 16.9165 174.814 15.3041 174.934 14.0649C174.97 13.7195 174.932 13.3704 174.823 13.0405C174.715 12.7107 174.538 12.4075 174.304 12.1509C174.07 11.8943 173.784 11.6901 173.465 11.5517C173.147 11.4133 172.803 11.3437 172.455 11.3477H135.698C135.353 11.3506 135.012 11.4247 134.697 11.5655C134.381 11.7062 134.099 11.9105 133.866 12.1656C133.633 12.4206 133.456 12.721 133.345 13.0478C133.233 13.3746 133.191 13.7209 133.22 14.0649C134.026 22.2017 137.699 46 154.122 46C163.079 46 168.171 38.9083 171.171 31.1448H173.934C174.665 31.207 175.401 31.0674 176.059 30.741C176.717 30.4145 177.273 29.9139 177.666 29.2934C179.166 27.5484 180.038 25.3514 180.144 23.0527C180.07 20.7237 178.771 18.7679 176.352 18.7679ZM162.467 40.3117C160.164 42.3776 157.178 43.5202 154.084 43.5202C150.99 43.5202 148.005 42.3776 145.701 40.3117C143.286 37.9977 141.38 35.2063 140.102 32.1152C137.863 26.5662 136.435 20.7232 135.862 14.7666C135.858 14.5586 135.932 14.3566 136.071 14.2014C136.209 14.0462 136.402 13.9494 136.609 13.9306H171.306C171.452 13.9296 171.596 13.9596 171.73 14.0187C171.863 14.0778 171.983 14.1645 172.08 14.2732C172.177 14.3819 172.251 14.5101 172.295 14.6492C172.339 14.7883 172.353 14.9352 172.336 15.0802C171.735 20.9674 170.298 26.7387 168.066 32.2197C166.767 35.2683 164.862 38.0213 162.467 40.3117V40.3117ZM175.337 28.3678C174.896 28.6559 174.368 28.7825 173.844 28.7261H171.843C171.843 28.7261 173.605 22.6646 173.934 21.2612H176.307C177.084 21.2612 177.442 22.2167 177.517 23.2767C177.316 25.1357 176.556 26.8901 175.337 28.3081V28.3678Z" fill="white"/>
    <g id="steam">
        <path d="M145.07 7.57593C145.036 7.65295 145.036 7.7325 145.07 7.80952C145.07 7.99306 145.07 8.15992 145.07 8.32677C145.07 8.49363 145.349 8.92745 145.489 9.19442C145.873 9.71167 146.222 10.1288 146.502 10.4125C146.781 10.6961 146.816 10.6461 146.886 10.7128C146.873 10.7515 146.873 10.7909 146.886 10.8296C146.96 10.8888 147.069 10.9363 147.2 10.966C147.33 10.9956 147.476 11.0063 147.619 10.9964C147.809 10.9765 147.975 10.9213 148.079 10.8431C148.184 10.7649 148.22 10.67 148.178 10.5793C148.178 10.5793 148.178 10.4125 148.178 10.1288C148.178 9.84515 147.969 9.4447 147.829 8.96082C147.791 8.7053 147.791 8.44881 147.829 8.19329V7.35902C147.934 7.1518 148.111 6.95443 148.353 6.77502C148.632 6.5748 149.086 6.35789 149.575 6.02418C149.85 5.83271 150.095 5.63196 150.309 5.4235C150.309 5.32339 150.309 5.22328 150.518 5.08979C150.548 4.97343 150.548 4.85576 150.518 4.7394C150.511 4.68383 150.511 4.62812 150.518 4.57254V4.25552V4.15541C150.554 3.98342 150.554 3.81014 150.518 3.63816C150.348 3.0394 150.08 2.448 149.715 1.8695C149.435 1.35225 149.086 0.968482 148.877 0.651458C148.667 0.334434 148.492 0.200951 148.492 0.200951C148.425 0.136995 148.319 0.0839491 148.188 0.0483655C148.058 0.0127819 147.909 -0.00378017 147.759 0.000725115C147.574 0.0168816 147.408 0.0648603 147.292 0.135581C147.176 0.206302 147.119 0.294859 147.13 0.384491C147.13 0.384491 147.13 0.551346 147.13 0.834999C147.13 1.11865 147.13 1.55247 147.41 2.03635C147.689 2.52023 147.619 3.12091 147.724 3.7049V4.15541C147.724 4.15541 147.724 4.48912 147.724 4.52249L147.515 4.80614C147.426 4.9183 147.309 5.02478 147.165 5.12316C146.781 5.32339 146.292 5.60704 145.768 5.94075C145.281 6.32946 145.016 6.77251 145 7.22553V7.50919L145.07 7.57593Z" fill="white"/>
        <path d="M150.832 7.50919C150.798 7.58621 150.798 7.66576 150.832 7.74278C150.832 7.92632 150.832 8.09318 150.832 8.26003C150.832 8.42689 151.111 8.86071 151.251 9.12768C151.533 9.54365 151.872 9.9505 152.264 10.3457L152.613 10.6461V10.7629C152.681 10.8207 152.784 10.8675 152.909 10.8973C153.033 10.927 153.173 10.9383 153.311 10.9297C153.408 10.9217 153.501 10.9045 153.584 10.879C153.667 10.8535 153.738 10.8203 153.794 10.7814C153.849 10.7425 153.887 10.6986 153.907 10.6524C153.926 10.6062 153.925 10.5587 153.905 10.5126V10.5126C153.905 10.5126 153.905 10.3457 153.905 10.0621C153.905 9.77841 153.695 9.37796 153.521 8.89408C153.483 8.63855 153.483 8.38208 153.521 8.12655V7.35902C153.596 7.14723 153.775 6.94703 154.045 6.77503C154.324 6.5748 154.743 6.35789 155.267 6.02418C155.791 5.69047 155.756 5.67378 156 5.4235C156.245 5.17322 156 5.22328 156.21 5.08979C156.24 4.97343 156.24 4.85576 156.21 4.7394C156.203 4.68383 156.203 4.62812 156.21 4.57254V4.25552V4.15541C156.246 3.98342 156.246 3.81014 156.21 3.63816C156.024 3.04084 155.755 2.45002 155.407 1.8695C155.165 1.45578 154.874 1.04908 154.534 0.651458L154.184 0.200951C154.116 0.136995 154.011 0.0839491 153.88 0.0483655C153.75 0.0127819 153.601 -0.00378017 153.451 0.000725115C153.266 0.0168816 153.1 0.0648603 152.984 0.135581C152.868 0.206302 152.811 0.294859 152.822 0.384491C152.822 0.384491 152.822 0.551346 152.822 0.834999C152.822 1.11865 152.822 1.55247 153.102 2.03635C153.381 2.52023 153.311 3.12091 153.381 3.7049V4.15541C153.381 4.15541 153.381 4.48912 153.381 4.52249L153.172 4.80614C153.083 4.9183 152.966 5.02478 152.822 5.12316C152.438 5.32339 151.949 5.60704 151.425 5.94075C150.927 6.32815 150.65 6.77111 150.622 7.22553V7.40907C150.622 7.40907 150.832 7.47581 150.832 7.50919Z" fill="white"/>
        <path d="M156.525 7.50912C156.491 7.58614 156.491 7.66569 156.525 7.74271C156.525 7.92625 156.525 8.09311 156.525 8.25996L156.979 9.12761C157.261 9.54358 157.6 9.95043 157.992 10.3456L158.341 10.646C158.328 10.6847 158.328 10.7241 158.341 10.7628C158.421 10.8192 158.531 10.8644 158.66 10.8938C158.789 10.9231 158.932 10.9355 159.074 10.9296C159.266 10.9095 159.434 10.8551 159.545 10.7775C159.655 10.6999 159.699 10.6051 159.668 10.5125V10.5125C159.668 10.5125 159.668 10.3456 159.668 10.062C159.668 9.77834 159.423 9.37789 159.284 8.89401C159.246 8.63848 159.246 8.38201 159.284 8.12648V7.35895C159.359 7.14716 159.538 6.94697 159.808 6.77496C160.087 6.57473 160.506 6.35782 161.03 6.02411C161.292 5.83205 161.526 5.63131 161.728 5.42343C161.836 5.31701 161.918 5.20505 161.973 5.08972C162.003 4.97336 162.003 4.85569 161.973 4.73933C161.966 4.68376 161.966 4.62805 161.973 4.57248V4.25545V4.15534C162.009 3.98336 162.009 3.81007 161.973 3.63809C161.786 3.04077 161.518 2.44995 161.17 1.86943C160.89 1.35218 160.506 0.968414 160.297 0.65139L159.947 0.200883C159.873 0.139475 159.766 0.0885818 159.637 0.0534031C159.508 0.0182244 159.362 2.22148e-05 159.214 0.000656918C159.026 0.0165104 158.856 0.0638431 158.734 0.134169C158.613 0.204495 158.547 0.293215 158.55 0.384423V0.83493C158.55 1.1019 158.55 1.55241 158.83 2.03628C159.109 2.52016 159.039 3.12084 159.109 3.70483V4.15534C159.109 4.15534 159.109 4.48905 159.109 4.52242L158.9 4.80607C158.812 4.92182 158.682 5.02918 158.515 5.1231C158.166 5.32332 157.677 5.60697 157.153 5.94068C156.655 6.32808 156.378 6.77104 156.35 7.22546V7.409C156.35 7.409 156.525 7.47575 156.525 7.50912Z" fill="white"/>
    </g>
    <path d="M165.871 26.203H142.297C142.099 26.2017 141.903 26.248 141.727 26.3378C141.55 26.4276 141.398 26.5584 141.282 26.7193C141.167 26.8801 141.092 27.0663 141.063 27.2622C141.034 27.4581 141.053 27.658 141.117 27.8453L141.864 29.8757C144.85 37.3407 148.851 41.0433 154.076 41.0433C159.302 41.0433 163.303 37.4004 166.304 29.8757C166.588 29.2039 166.827 28.5171 167.05 27.8453C167.115 27.658 167.133 27.4581 167.105 27.2622C167.076 27.0663 167.001 26.8801 166.885 26.7193C166.77 26.5584 166.617 26.4276 166.441 26.3378C166.264 26.248 166.069 26.2017 165.871 26.203V26.203Z" fill="white"/>
</svg>